<svg width="16" height="16" viewBox="4 4 16 16" fill="none" xmlns="http://www.w3.org/2000/svg">
<g id="Type=arrow-ios-back, Fill=no">
<path id="Mask" fill-rule="evenodd" clip-rule="evenodd" d="M13.8301 19C13.5381 19 13.2481 18.873 13.0501 18.627L8.22212 12.627C7.92412 12.256 7.92812 11.726 8.23312 11.36L13.2331 5.35998C13.5861 4.93598 14.2171 4.87898 14.6421 5.23198C15.0661 5.58498 15.1231 6.21598 14.7691 6.63998L10.2941 12.011L14.6091 17.373C14.9551 17.803 14.8871 18.433 14.4561 18.779C14.2721 18.928 14.0501 19 13.8301 19Z"/>
<mask id="mask0_1495_8483" style="mask-type:alpha" maskUnits="userSpaceOnUse" x="8" y="5" width="8" height="14">
<path id="Mask_2" fill-rule="evenodd" clip-rule="evenodd" d="M13.8301 19C13.5381 19 13.2481 18.873 13.0501 18.627L8.22212 12.627C7.92412 12.256 7.92812 11.726 8.23312 11.36L13.2331 5.35998C13.5861 4.93598 14.2171 4.87898 14.6421 5.23198C15.0661 5.58498 15.1231 6.21598 14.7691 6.63998L10.2941 12.011L14.6091 17.373C14.9551 17.803 14.8871 18.433 14.4561 18.779C14.2721 18.928 14.0501 19 13.8301 19Z"/>
</mask>
</g>
</svg>
