<svg width="16" height="16" viewBox="4 4 16 16" fill="none" xmlns="http://www.w3.org/2000/svg">
<g id="Type=arrow-ios-forward, Fill=no">
<path id="Mask" fill-rule="evenodd" clip-rule="evenodd" d="M10.001 19C9.77496 19 9.54796 18.924 9.36096 18.768C8.93696 18.415 8.87996 17.784 9.23296 17.36L13.709 11.989L9.39396 6.62701C9.04796 6.19701 9.11596 5.56701 9.54596 5.22101C9.97696 4.87501 10.606 4.94301 10.953 5.37301L15.781 11.373C16.079 11.744 16.075 12.274 15.77 12.64L10.77 18.64C10.572 18.877 10.288 19 10.001 19Z"/>
<mask id="mask0_1495_8487" style="mask-type:alpha" maskUnits="userSpaceOnUse" x="9" y="5" width="8" height="14">
<path id="Mask_2" fill-rule="evenodd" clip-rule="evenodd" d="M10.001 19C9.77496 19 9.54796 18.924 9.36096 18.768C8.93696 18.415 8.87996 17.784 9.23296 17.36L13.709 11.989L9.39396 6.62701C9.04796 6.19701 9.11596 5.56701 9.54596 5.22101C9.97696 4.87501 10.606 4.94301 10.953 5.37301L15.781 11.373C16.079 11.744 16.075 12.274 15.77 12.64L10.77 18.64C10.572 18.877 10.288 19 10.001 19Z" />
</mask>
</g>
</svg>
